<svg width="109" height="109" viewBox="0 0 109 109" fill="none" xmlns="http://www.w3.org/2000/svg">
<g clip-path="url(#clip0)">
<rect x="96.0488" y="49.1016" width="49.8984" height="84.0984" rx="3.7377" transform="rotate(90 96.0488 49.1016)" fill="#FFCE44"/>
<rect x="84.0879" y="45.9219" width="19.623" height="45.0393" rx="3.92459" fill="#4B77BB"/>
<path d="M92.3832 27.6622C93.1289 26.6247 94.6726 26.6247 95.4183 27.6622L106.583 43.1953C107.471 44.4317 106.588 46.1549 105.065 46.1549H82.7365C81.2139 46.1549 80.3303 44.4317 81.2189 43.1953L92.3832 27.6622Z" fill="#57B57A"/>
<rect x="4.28906" y="45.9219" width="19.623" height="45.0393" rx="3.92459" fill="#4B77BB"/>
<path d="M12.5825 27.6622C13.3282 26.6247 14.8718 26.6247 15.6175 27.6622L26.7819 43.1953C27.6705 44.4317 26.7869 46.1549 25.2643 46.1549H2.93568C1.41309 46.1549 0.529504 44.4317 1.41814 43.1953L12.5825 27.6622Z" fill="#57B57A"/>
<path d="M51.3084 12.331C52.8534 10.993 55.1466 10.993 56.6916 12.331L90.697 41.7805C93.5746 44.2726 91.8122 49 88.0054 49H19.9946C16.1878 49 14.4254 44.2726 17.303 41.7805L51.3084 12.331Z" fill="#E9415F"/>
<rect x="103.711" y="90.9648" width="8.03607" height="99.423" rx="3.7377" transform="rotate(90 103.711 90.9648)" fill="#57B57A"/>
</g>
<defs>
<clipPath id="clip0">
<rect width="109" height="109" fill="white"/>
</clipPath>
</defs>
</svg>
